<svg width="48" height="48" viewBox="0 0 48 48" fill="none" xmlns="http://www.w3.org/2000/svg">
<path d="M4 14L3.10557 12.2111C2.428 12.5499 2 13.2425 2 14H4ZM24 4L24.8944 2.21115C24.3314 1.92962 23.6686 1.92962 23.1056 2.21115L24 4ZM44 14H46C46 13.2425 45.572 12.5499 44.8944 12.2111L44 14ZM44 34L44.8944 35.7889C45.572 35.4501 46 34.7575 46 34H44ZM24 44L23.1056 45.7889C23.6686 46.0704 24.3314 46.0704 24.8944 45.7889L24 44ZM4 34H2C2 34.7575 2.428 35.4501 3.10557 35.7889L4 34ZM4.89443 15.7889L24.8944 5.78885L23.1056 2.21115L3.10557 12.2111L4.89443 15.7889ZM42 14V34H46V14H42ZM43.1056 32.2111L23.1056 42.2111L24.8944 45.7889L44.8944 35.7889L43.1056 32.2111ZM24.8944 42.2111L4.89443 32.2111L3.10557 35.7889L23.1056 45.7889L24.8944 42.2111ZM6 34V14H2V34H6ZM44.8944 12.2111L24.8944 2.21115L23.1056 5.78885L43.1056 15.7889L44.8944 12.2111Z" fill="black" fill-opacity="0.85"/>
<path d="M4 14L24 24" stroke="black" stroke-opacity="0.85" stroke-width="2" stroke-linecap="round" stroke-linejoin="round"/>
<path d="M24 44V24" stroke="black" stroke-opacity="0.85" stroke-width="2" stroke-linecap="round" stroke-linejoin="round"/>
<path d="M44 14L24 24" stroke="black" stroke-opacity="0.85" stroke-width="2" stroke-linecap="round" stroke-linejoin="round"/>
</svg>
