<svg width="26" height="26" viewBox="0 0 26 26" fill="none" xmlns="http://www.w3.org/2000/svg">
<path d="M13.9788 9.12059C15.7064 9.55529 16.9897 11.1144 16.9999 12.9782C17.01 14.842 15.7437 16.415 14.021 16.8685L14.0489 21.9944L12.0489 22.0053L12.021 16.8793C10.2934 16.4447 9.01012 14.8855 8.99998 13.0217C8.98983 11.158 10.2561 9.58495 11.9788 9.13147L11.951 4.00555L13.9509 3.99466L13.9788 9.12059ZM14.9999 12.9891C14.9939 11.8845 14.0936 10.994 12.989 11C11.8844 11.006 10.9939 11.9063 10.9999 13.0109C11.006 14.1154 11.9062 15.006 13.0108 14.9999C14.1154 14.9939 15.0059 14.0937 14.9999 12.9891Z" fill="white"/>
</svg>
