<svg width="48" height="48" viewBox="0 0 48 48" fill="none" xmlns="http://www.w3.org/2000/svg">
<path d="M14.2102 30.4202C16.4301 31.3002 18 33.4668 18 36C18 39.3138 15.3137 42 12 42C8.6863 42 6 39.3138 6 36C6 33.3876 7.66962 31.165 10 30.3414V17.6586C7.66962 16.8349 6 14.6124 6 12C6 8.6863 8.6863 6 12 6C15.3137 6 18 8.6863 18 12C18 14.6124 16.3304 16.8349 14 17.6586V23.9992C15.6713 22.7438 17.7488 22 20 22H28C30.767 22 33.0964 20.127 33.7898 17.5798C31.5698 16.6998 30 14.5332 30 12C30 8.6863 32.6862 6 36 6C39.3138 6 42 8.6863 42 12C42 14.6664 40.2606 16.9266 37.8548 17.7078C37.0444 22.417 32.9406 26 28 26H20C17.2331 26 14.9036 27.873 14.2102 30.4202ZM12 34C10.8954 34 10 34.8954 10 36C10 37.1046 10.8954 38 12 38C13.1046 38 14 37.1046 14 36C14 34.8954 13.1046 34 12 34ZM12 10C10.8954 10 10 10.8954 10 12C10 13.1046 10.8954 14 12 14C13.1046 14 14 13.1046 14 12C14 10.8954 13.1046 10 12 10ZM36 10C34.8954 10 34 10.8954 34 12C34 13.1046 34.8954 14 36 14C37.1046 14 38 13.1046 38 12C38 10.8954 37.1046 10 36 10Z" fill="white"/>
</svg>
