<svg width="48" height="53" viewBox="0 0 48 53" fill="none" xmlns="http://www.w3.org/2000/svg">
<g filter="url(#filter0_d_323_1790)">
<path d="M38 4H10C8.89543 4 8 4.89543 8 6V42C8 43.1046 8.89543 44 10 44H38C39.1046 44 40 43.1046 40 42V6C40 4.89543 39.1046 4 38 4Z" fill="white" stroke="black" stroke-opacity="0.85" stroke-width="2" stroke-linejoin="round"/>
<path d="M21 14H33" stroke="black" stroke-opacity="0.85" stroke-width="2" stroke-linecap="round" stroke-linejoin="round"/>
<path d="M21 24H33" stroke="black" stroke-opacity="0.85" stroke-width="2" stroke-linecap="round" stroke-linejoin="round"/>
<path d="M21 34H33" stroke="black" stroke-opacity="0.85" stroke-width="2" stroke-linecap="round" stroke-linejoin="round"/>
<path fill-rule="evenodd" clip-rule="evenodd" d="M15 16C16.1046 16 17 15.1046 17 14C17 12.8954 16.1046 12 15 12C13.8954 12 13 12.8954 13 14C13 15.1046 13.8954 16 15 16Z" fill="black" fill-opacity="0.85"/>
<path d="M16.75 14C16.75 14.9665 15.9665 15.75 15 15.75C14.0335 15.75 13.25 14.9665 13.25 14C13.25 13.0335 14.0335 12.25 15 12.25C15.9665 12.25 16.75 13.0335 16.75 14Z" stroke="black" stroke-opacity="0.85" stroke-width="0.5"/>
<path fill-rule="evenodd" clip-rule="evenodd" d="M15 26C16.1046 26 17 25.1046 17 24C17 22.8954 16.1046 22 15 22C13.8954 22 13 22.8954 13 24C13 25.1046 13.8954 26 15 26Z" fill="black" fill-opacity="0.85"/>
<path d="M16.75 24C16.75 24.9665 15.9665 25.75 15 25.75C14.0335 25.75 13.25 24.9665 13.25 24C13.25 23.0335 14.0335 22.25 15 22.25C15.9665 22.25 16.75 23.0335 16.75 24Z" stroke="black" stroke-opacity="0.85" stroke-width="0.5"/>
<path fill-rule="evenodd" clip-rule="evenodd" d="M15 36C16.1046 36 17 35.1046 17 34C17 32.8954 16.1046 32 15 32C13.8954 32 13 32.8954 13 34C13 35.1046 13.8954 36 15 36Z" fill="black" fill-opacity="0.85"/>
<path d="M16.75 34C16.75 34.9665 15.9665 35.75 15 35.75C14.0335 35.75 13.25 34.9665 13.25 34C13.25 33.0335 14.0335 32.25 15 32.25C15.9665 32.25 16.75 33.0335 16.75 34Z" stroke="black" stroke-opacity="0.85" stroke-width="0.5"/>
</g>
<defs>
<filter id="filter0_d_323_1790" x="-4" y="0" width="56" height="56" filterUnits="userSpaceOnUse" color-interpolation-filters="sRGB">
<feFlood flood-opacity="0" result="BackgroundImageFix"/>
<feColorMatrix in="SourceAlpha" type="matrix" values="0 0 0 0 0 0 0 0 0 0 0 0 0 0 0 0 0 0 127 0" result="hardAlpha"/>
<feOffset dy="4"/>
<feGaussianBlur stdDeviation="2"/>
<feComposite in2="hardAlpha" operator="out"/>
<feColorMatrix type="matrix" values="0 0 0 0 0 0 0 0 0 0 0 0 0 0 0 0 0 0 0.25 0"/>
<feBlend mode="normal" in2="BackgroundImageFix" result="effect1_dropShadow_323_1790"/>
<feBlend mode="normal" in="SourceGraphic" in2="effect1_dropShadow_323_1790" result="shape"/>
</filter>
</defs>
</svg>
